<?xml version="1.0" standalone="no"?>
<!DOCTYPE svg PUBLIC "-//W3C//DTD SVG 20010904//EN"
 "http://www.w3.org/TR/2001/REC-SVG-20010904/DTD/svg10.dtd">
<svg version="1.0" xmlns="http://www.w3.org/2000/svg"
 width="200px" height="70px" viewBox="0 0 325.000000 97.000000"
 preserveAspectRatio="xMidYMid meet">

<g transform="translate(0.000000,97.000000) scale(0.100000,-0.100000)"
fill="#000000" stroke="none">
<path d="M895 700 c-11 -5 -14 -9 -6 -9 16 -1 14 -20 -23 -158 -28 -106 -28
-123 3 -123 20 0 75 53 65 63 -4 3 -15 -4 -24 -16 -33 -40 -33 -9 -1 106 41
152 41 160 -14 137z"/>
<path d="M2540 700 c0 -5 7 -10 15 -10 18 0 18 -4 4 -52 -9 -34 -13 -38 -43
-38 -65 0 -130 -101 -106 -164 7 -20 16 -26 39 -26 15 0 34 7 41 15 7 8 16 15
21 15 5 0 9 -7 9 -15 0 -28 48 -18 65 15 17 34 18 40 6 40 -5 0 -11 -9 -14
-20 -6 -25 -27 -27 -27 -2 0 9 13 67 30 127 16 61 30 113 30 118 0 4 -16 7
-35 7 -19 0 -35 -4 -35 -10z m-10 -145 c0 -58 -51 -133 -79 -116 -20 13 -6 74
25 111 32 37 54 39 54 5z"/>
<path d="M260 680 c0 -5 7 -10 15 -10 20 0 19 -26 -6 -123 -24 -95 -34 -117
-54 -117 -8 0 -15 -5 -15 -10 0 -7 40 -10 112 -8 l111 3 13 38 c16 45 11 46
-26 7 -22 -23 -37 -30 -67 -30 -55 0 -63 12 -49 68 10 40 16 47 37 47 17 0 25
-6 27 -22 6 -38 17 -26 29 30 12 60 9 70 -13 39 -16 -24 -54 -30 -54 -9 0 6 5
29 11 50 9 33 13 37 43 37 32 0 66 -24 66 -48 0 -7 5 -12 10 -12 6 0 10 18 10
40 l0 40 -100 0 c-60 0 -100 -4 -100 -10z"/>
<path d="M1559 569 c-56 -66 -112 -125 -125 -131 -37 -17 -29 -28 21 -28 42 0
60 13 33 23 -22 8 62 87 92 87 15 0 29 -3 32 -6 11 -11 -12 -69 -35 -86 -22
-17 -21 -18 36 -18 31 0 57 4 57 10 0 6 -7 10 -15 10 -20 0 -19 10 10 134 14
58 25 110 25 116 0 31 -40 -3 -131 -111z m71 2 c-9 -34 -15 -41 -35 -41 -14 0
-25 3 -25 6 0 10 62 85 67 80 2 -2 -1 -22 -7 -45z"/>
<path d="M2140 600 c-8 -5 -27 -6 -42 -3 -32 6 -58 -11 -58 -38 0 -13 7 -19
21 -19 16 0 20 5 16 20 -4 17 -2 18 14 10 18 -10 18 -12 -3 -55 -17 -35 -20
-51 -12 -72 13 -38 57 -43 91 -11 54 50 85 168 44 168 -16 0 -19 -7 -18 -49 2
-56 -26 -106 -59 -106 -35 0 -26 80 14 127 18 21 13 41 -8 28z"/>
<path d="M486 593 c-13 -14 -6 -53 10 -53 11 0 15 6 11 20 -6 23 5 26 22 6 10
-11 9 -21 -3 -45 -30 -57 -16 -111 29 -111 51 0 105 77 105 150 0 34 -3 41
-17 38 -14 -3 -17 -12 -15 -46 4 -51 -28 -112 -60 -112 -19 0 -20 5 -16 49 3
27 14 62 26 78 l21 29 -53 2 c-29 1 -56 -2 -60 -5z"/>
<path d="M736 579 c-35 -27 -56 -70 -56 -112 0 -40 15 -57 51 -57 30 0 82 37
73 52 -4 5 -16 0 -30 -13 -27 -26 -54 -19 -54 13 1 18 13 29 50 46 49 23 71
56 55 81 -11 18 -61 12 -89 -10z m64 -10 c0 -12 -49 -59 -61 -59 -17 0 -9 27
16 54 23 25 45 28 45 5z"/>
<path d="M956 568 c-15 -35 -11 -55 5 -25 15 27 27 20 38 -20 24 -99 24 -109
-11 -148 -28 -32 -33 -35 -44 -21 -17 23 -36 20 -32 -6 6 -43 45 -35 97 19 81
84 144 241 94 231 -13 -3 -17 -12 -15 -33 2 -31 -27 -110 -37 -100 -3 3 -12
34 -21 68 -12 51 -19 63 -38 65 -17 3 -25 -4 -36 -30z"/>
<path d="M1150 568 c-10 -18 -17 -35 -13 -38 3 -3 8 0 10 6 8 22 31 49 37 43
4 -4 -5 -42 -18 -85 -14 -43 -23 -80 -21 -82 12 -13 34 12 49 54 18 55 61 114
82 114 17 0 18 4 -6 -65 -11 -32 -20 -69 -20 -82 0 -33 30 -30 65 7 30 31 25
42 -7 13 -16 -14 -18 -14 -18 -1 0 9 7 35 15 58 8 23 15 53 15 66 0 20 -5 24
-32 24 -17 0 -40 -7 -50 -17 -17 -15 -18 -15 -18 0 0 31 -48 21 -70 -15z"/>
<path d="M1782 585 c-28 -20 -62 -86 -62 -119 0 -31 25 -56 56 -56 25 0 74 40
74 60 0 16 -9 12 -35 -17 -22 -26 -25 -27 -41 -11 -22 22 -12 77 23 119 26 30
27 31 35 10 10 -29 40 -28 36 2 -4 28 -53 35 -86 12z"/>
<path d="M1929 573 c-15 -15 -32 -38 -38 -50 -15 -29 -14 -86 1 -101 27 -27
108 -1 108 35 0 13 -5 12 -25 -7 -21 -19 -30 -22 -43 -14 -32 21 -25 42 20 62
83 37 105 94 38 100 -28 2 -41 -3 -61 -25z m40 -39 c-12 -13 -29 -24 -36 -24
-18 0 9 55 34 69 28 15 29 -16 2 -45z"/>
<path d="M2302 584 c-26 -18 -62 -84 -62 -114 0 -62 65 -83 110 -35 29 31 20
45 -10 15 -27 -27 -54 -22 -58 11 -3 22 2 28 24 33 49 13 84 44 84 77 0 26 -3
29 -33 29 -18 0 -43 -7 -55 -16z m58 -19 c0 -7 -12 -23 -26 -34 -49 -39 -60
-21 -18 28 25 31 44 33 44 6z"/>
<path d="M2656 571 c-57 -60 -43 -161 23 -161 67 1 124 109 91 171 -17 31 -80
26 -114 -10z m82 -27 c5 -65 -65 -148 -76 -91 -10 50 34 143 62 134 6 -2 12
-21 14 -43z"/>
</g>
</svg>
